<svg xmlns="http://www.w3.org/2000/svg" viewBox="0 0 99.28 89.87">
  <defs>
    <style>
      .cls-1 {
        fill: #15283a;
      }

      .cls-2 {
        fill: #fff;
      }
    </style>
  </defs>
  <g id="Layer_2" data-name="Layer 2">
    <g id="archor2">
      <g>
        <path class="cls-1" d="M36.57,89.87c6.3-.08,12.6-.29,18.9-.44,13.32.75,23.19-5.77,31.81-14.85,8-8.38,12.83-18.37,11.88-30-1.47-17.91-10.5-31.65-26.5-39.7C55-4,37.54.23,22,10.13,9.39,18.12,4.26,32,.94,46-4.38,68.33,13.6,90.11,36.57,89.87Z"/>
        <path class="cls-2" d="M48.25,49.62c-.06-2.68-.22-4.22-.11-5.74.22-2.79-.69-4.35-3.74-4.33-1.59,0-3.23-.48-3.27-2.48s1.73-2,3.21-2.47,4.31.62,4.51-2.32c.17-2.63.17-5.07-2.68-6.94C42.59,23,40.5,19.46,42.47,15c1.6-3.67,4-7,8.5-6.5,4.29.45,8.53,2.18,9.89,6.73,1.32,4.39-1.49,7.76-4.68,10.35-1.62,1.33-3.64,1.87-3.41,4.62.18,2.26,0,4.31,3.27,4,2-.18,3.51.89,3.29,3s-1.66,3.33-4.1,2.54S52,40.24,52,42.34c.15,6.88-.31,13.87,2,20.51,2.13,6,5.45,8.5,10.35,8.2s9-4,10.32-9.4c.26-1.07.58-3,.14-3.25-7.27-4.16-1-8.28,0-12.34A9.77,9.77,0,0,1,76.39,43c.79-1.17.82-3.38,2.88-3,1.68.32,2.07,2.13,2.47,3.59.81,3,1.53,5.94,2.22,8.93.36,1.55.35,4-1,4.13-4.84.64-4.17,4.71-5.29,7.6-2.24,5.77-6,10-12.18,11.08-6,1-10.11-2.54-13.34-7.27-.61-.9-1.51-3.87-2.86-.81C47,72.59,42.74,75,37.48,74.63c-6.23-.44-11.86-3-15.66-8.44-1.37-2-2.25-4.37-5.51-4.24-2.16.1-2.75-1.8-2.46-3.73.62-4.17,1.3-8.33,2-12.49.19-1.09.36-2.4,2-2.33a2.2,2.2,0,0,1,2.06,1.74c1.06,4,3.89,7,5.93,10.44.82,1.37,1.64,3,.08,4.14-3.34,2.38-1.31,4.4.39,6.07,3.73,3.66,8.42,5.65,13.58,4.74,4.56-.8,5.82-5,7-9C48.23,57.27,48.21,52.89,48.25,49.62ZM52,22.09c2.94,0,4.86-1.22,5.14-4.26.22-2.49-3.51-6-6.11-5.7a4.77,4.77,0,0,0-4.32,5.23C46.81,20.48,48.93,22,52,22.09Z"/>
      </g>
    </g>
  </g>
</svg>
