<svg xmlns="http://www.w3.org/2000/svg" viewBox="0 0 76 96.61">
  <defs>
    <style>
      .cls-1 {
        fill: #15283a;
      }

      .cls-2 {
        fill: #fff;
      }
    </style>
  </defs>
  <g id="Layer_2" data-name="Layer 2">
    <g id="skull">
      <g>
        <path class="cls-1" d="M75,24.13c-2.13-5.19-7.08-5.57-11.62-5.92-5-.39-7.73-2.86-9-7.44a19.74,19.74,0,0,0-1.56-4.13C51,3.45,49.08.16,44.94,0c-3.84-.14-6.51,1.85-8.8,5.14-2.56,3.7-4.32,8.61-9.78,9.4-2.28.32-4.57.5-6.85.82-5.5.75-11,1.46-15.2,5.73C-1.81,27.26-1.48,32,5.72,36.77A17.31,17.31,0,0,0,10.45,39c3,.9,3.85,2.44,2.8,5.52a15.71,15.71,0,0,0,1.63,14.3,10.66,10.66,0,0,1,1.34,9c-.5,2.06-1,4.45.89,6.27,2.31,2.2,3,4.93,2.95,8,0,4.87-.5,10.08,4.87,12.78,3,1.5,6.41,1.57,9,1.78,4.49-.23,8.31-.59,11.69-2.44,5.08-2.8,6.38-7.4,4.59-15.93-.57-2.7-.87-5.07.85-7.6,1.2-1.77,2.15-4.21.83-6.3-2.11-3.37-.6-5.89,1.29-8.56,2.73-3.83,5.51-7.66,5.42-12.71,0-1.17.84-1.47,1.79-1.75,2.38-.71,4.77-1.38,7.08-2.29C74.87,36.14,77.68,30.64,75,24.13Zm-41.09,69c-1.81-.28-3.64-.49-5.44-.86-3.48-.72-6.33-6.09-5-9.36a2.36,2.36,0,0,1,.46-.55A18.1,18.1,0,0,1,25.4,84c4.07,5.63,11.59,7.45,16.25,3.76a10.3,10.3,0,0,0,4.14-7.79,6.45,6.45,0,0,1,.59-1.73,11.69,11.69,0,0,1,.81,1.72C49.72,88.72,44.54,93.85,33.93,93.15ZM39.41,78.5a17.24,17.24,0,0,1-7.84.94c-1.29-.52-4.64,1.11-4.66-1.24,0-1.71,3.3-.22,5.12-.32,2.4-.12,4.79-.17,7.19-.23a6.81,6.81,0,0,1,1.23.23A5.6,5.6,0,0,1,39.41,78.5Zm2,4.13A5,5,0,0,1,40.86,84c-2.08,2.51-7.37,2.81-9.55.54-.2-.21-.22-.59-.33-.89l2.09-.39.06.32c2.34-.41,4.68-.84,7-1.21A4,4,0,0,1,41.45,82.63ZM54.39,46.48c-1.06,3.68-3.76,6.51-5.53,9.85-1.5,2.84-2.63,5.48-.63,8.78,1.59,2.62-.8,6.84-4.61,7.8a42.72,42.72,0,0,1-21.28,0c-2.46-.63-3.45-2.47-2.67-4.92a12.09,12.09,0,0,0-1.76-10.8C15,52.83,15.5,48.28,16.65,43.6c.29-1.15.71-1.6,2.09-1.47,3.57.37,7.16.45,10.74.64a169.45,169.45,0,0,0,21.85-.53C55,42,55.07,44.08,54.39,46.48ZM68.32,34.89c-7.16,4.76-15.4,4.51-23.5,4.18-8.37,0-16.77.35-25.12-.15A27.26,27.26,0,0,1,7,34.57C5,33.26,2.7,31.7,3.34,28.66c.82-3.87,3.61-6.18,7-7.65A27.25,27.25,0,0,1,20,18.84c7.74-.35,14.2-3,18-10.29.3-.57.78-1,1.12-1.58,1.41-2.19,3.11-4.08,6-3.6s4.14,3,4.69,5.31c2,8.3,6.38,13.16,15.46,13.13a6.82,6.82,0,0,1,7,5.24C73.46,31.17,71.06,33.07,68.32,34.89Z"/>
        <path class="cls-1" d="M68.32,34.89c-7.16,4.76-15.4,4.51-23.5,4.18-8.37,0-16.77.35-25.12-.15A27.26,27.26,0,0,1,7,34.57C5,33.26,2.7,31.7,3.34,28.66c.82-3.87,3.61-6.18,7-7.65A27.25,27.25,0,0,1,20,18.84c7.74-.35,14.2-3,18-10.29.3-.57.78-1,1.12-1.58,1.41-2.19,3.11-4.08,6-3.6s4.14,3,4.69,5.31c2,8.3,6.38,13.16,15.46,13.13a6.82,6.82,0,0,1,7,5.24C73.46,31.17,71.06,33.07,68.32,34.89Z"/>
        <path class="cls-2" d="M47.11,33.4c.11,2-.93,1.93-1.41,2.4-.62.62-1.25.79-1.92.12-.45-.45-.89-.93-1.3-1.43-2.18-2.68-4.29-3.4-6.45.06a8.19,8.19,0,0,1-1.83,1.68c-.67.56-1.43,1-2.21.22A1.48,1.48,0,0,1,32.1,34c5.45-3.28,4.34-6.79.61-10.57A1.53,1.53,0,0,1,32.94,21c1-.71,1.87-.23,2.63.64,4.39,5,4.41,5,7.55-1.07.49-.94,1-1.85,2.21-1.75a1.86,1.86,0,0,1,1.83,1.45,2.3,2.3,0,0,1-1,2.62,27,27,0,0,0-2,2.21c-3.26,2.93-2.2,5.12,1.1,7C46.08,32.63,46.89,33.25,47.11,33.4Z"/>
        <path class="cls-1" d="M39.7,66.09c0,.89-1.3,2.09-2.85,2.22-2.72.22-5.66,1.48-8.2-.6-1.62-1.32-1-3-.34-4.55a21.33,21.33,0,0,1,1.86-3.38c1.12-1.6,1.09-5,3.74-4.3,2.94.76,5,3.33,5.54,6.59C39.62,63.05,39.58,64.08,39.7,66.09Zm-3.76-2.78c-.66-1.12-.71-3-2.23-3.39-.93-.25-1.58,1.58-1.32,1.94a9.81,9.81,0,0,0,3,2.39C35.88,64.56,36,63.93,35.94,63.31Z"/>
        <path class="cls-1" d="M21.41,56.58c-2.54-.36-3.54-2.4-3.67-4.84-.2-3.66,2.83-6.36,6.94-6.22,2.48.08,5.45-.24,5.76,3.49C30.63,51.32,24.51,56.57,21.41,56.58Zm4.17-6.69c-.48-1.09-1.53-1.08-2.33-1.06-1.6,0-2.09,1.28-2.07,2.65,0,.71.36,1.62,1.31,1.27A5.58,5.58,0,0,0,25.58,49.89Z"/>
        <path class="cls-1" d="M41.32,46.25c2.9.94,6.77.76,7.46,5a4.35,4.35,0,0,1-2.89,5.12c-3,1-5.28-.75-7.28-2.79a4.55,4.55,0,0,1-.84-1.41c-.63-1.42-3.12-2.21-1.92-4.14S39.24,46.58,41.32,46.25ZM42,50.11c-.42.13-1.61-.53-1.21.6a4,4,0,0,0,3,2.55,1,1,0,0,0,1.32-1C44.88,50.52,43.53,50.17,42,50.11Z"/>
      </g>
    </g>
  </g>
</svg>
