<svg xmlns="http://www.w3.org/2000/svg" viewBox="0 0 733.76 388.88">
  <defs>
    <style>
      .cls-1 {
        fill: #15283a;
      }
    </style>
  </defs>
  <g id="Layer_2" data-name="Layer 2">
    <g id="whale">
      <path class="cls-1" d="M189.2,350.87c20.11,4.19,40.18,8.58,60.58,11.07q35.8,4.38,71.67,8.17c14.59,1.58,29.12,4,43.86,3.89,9.5-.09,18.46,2.18,27.28,5.64,6.53,2.58,12.7,6,19.26,8.44,2.56,1,5.23,1.41,7.3-.73s1.73-5,.56-7.66c-.36-.83-.77-1.64-1.21-2.43-1.09-2-4.6-3.54-3.57-5.3.8-1.37,4.51-1,6.94-1.45.12,0,.25,0,.38,0,21.48-2.09,42.87-4.76,64.09-8.83,17.27-3.3,33.84-8.73,48.89-17.66a103.63,103.63,0,0,0,35.71-34.59c10-16.12,18.09-32.89,23.32-51.14,3.56-12.4,3.36-25.18,5-37.76,1.89-14.65-.26-29.34.18-44,.35-11.63-.58-23.29,1-34.89,1-7.67,2.52-15.21,8-21.18a99.11,99.11,0,0,1,10.2-10.19C634,97.69,646.49,82.55,659,67.26c8.55-10.45,15.52-22.08,24.81-31.95,6-6.42,11.38-13.48,19.21-18A51.06,51.06,0,0,1,725,10a12.05,12.05,0,0,0,7.93-3.76,2.41,2.41,0,0,0,.62-2.85c-.4-.85-1.19-.84-2-.82-9,.15-17.86-1.42-26.78-2.19a104.22,104.22,0,0,0-43,5.06c-13.1,4.44-26.46,7.67-40.51,6.5a76.43,76.43,0,0,0-19.81.71c-6.51,1.15-12.83,2.93-16.47,9.16-1.45,2.48-2.25,2.31-4.06.31C573.61,14.08,565.1,7.91,554,6.07c-2.95-.49-5.87-1.08-8.81-1.64a73.11,73.11,0,0,0-24-.65c-14.06,1.93-27.55,6.59-41.68,8.16-10.38,1.16-20.71,1.66-30.94-1.19A115.59,115.59,0,0,0,436.82,8c-4-.69-6.37,2.44-5,6.29a17.92,17.92,0,0,0,3.85,5.81c5.36,6,10.61,12.15,16.19,18,10.83,11.25,23.24,20.7,35.6,30.15,7.93,6.08,15.94,12.2,22.52,19.67,7.66,8.71,15.93,16.91,21.69,27.34,4.54,8.2,9.26,16.1,11.52,25.32,2.51,10.2,2.1,20.1-2.08,29.74-7.76,17.9-23.05,26.31-40.81,30.48-18.39,4.32-37.24,5.23-56.15,5.26-20.67,0-40.82-4.05-61.16-6.66-10.94-1.39-21.48-5-32.45-6.47-10.3-1.36-20.61-2.74-30.75-5.06-18.22-4.16-36.65-7.64-54.35-13.74-15.49-5.34-31.3-9.53-46.83-14.72-18.7-6.25-37.55-12.17-56.24-18.47-12.42-4.18-24.65-9-36.92-13.54-10.38-3.87-21.18-6.28-31.85-9.06-12.33-3.23-24.75-5.87-39.05-5.75A42,42,0,0,0,41,114.43c-7.37,2.26-15.19,3.91-20.41,10.48A73.08,73.08,0,0,0,12,138.83c-5,10.45-8,21.63-10.47,32.93a71.28,71.28,0,0,0-.63,26.33c1.4,8.86,2.58,17.75,3.74,26.63.78,6.06,1.27,12.15,2,18.2.57,4.57,1.45,9.32,5.62,12,5.36,3.4,10.83,6.92,16.74,9.08,12.69,4.61,25.41,9.19,38.21,13.5,14.14,4.76,28.75,8.34,42.42,14.33,11.37,5,23.12,8.51,35,12,15,4.38,30.23,7.49,45.38,11.09,8.09,1.92,16.31,3.39,24,6.72,1.28.55,3,1.07,2.91,2.78-.07,2.07-2.06,1.59-3.31,1.87-7.36,1.67-14.51-.28-21.6-1.66-14.81-2.9-28.86-8.62-43.6-11.82a189.46,189.46,0,0,1-27.58-8.37Q94.7,294.32,68.4,284.67c-11-4-22.48-6.4-33.07-11.51a25.79,25.79,0,0,0-7-2.35c-5.55-.95-9.13,2.36-8.64,8,.34,4,2.55,6.81,5.62,8.93,4.8,3.31,9.83,6.3,14.66,9.57A202.82,202.82,0,0,0,72.4,315c23.36,10.27,47.78,17.6,72.14,25C159.21,344.46,174.2,347.74,189.2,350.87Z"/>
    </g>
  </g>
</svg>
