<svg xmlns="http://www.w3.org/2000/svg" xmlns:xlink="http://www.w3.org/1999/xlink" width="100" height="100" viewBox="0 0 100 100"><g><g transform="translate(50 50) scale(0.69 0.69) rotate(0) translate(-50 -50)" style="fill:#333333"><svg fill="#333333" xmlns="http://www.w3.org/2000/svg" xmlns:xlink="http://www.w3.org/1999/xlink" version="1.1" x="0px" y="0px" viewBox="0 0 65 65" enable-background="new 0 0 65 65" xml:space="preserve"><g><path d="M62.5,13.1H54v-7h-3.7V3.8H33.3h-1.5H14.6v2.4h-3.7v7H2.5c-1.5,0-2.8,1.2-2.8,2.8v35.4c0,1.5,1.2,2.8,2.8,2.8h21.7   l-3.8,5.7h-4v1.5h32.3v-1.5h-4l-3.8-5.7h21.7c1.5,0,2.8-1.2,2.8-2.8V15.9C65.3,14.4,64,13.1,62.5,13.1z M33.3,5.3h15.6v23.1H33.3   V5.3z M16.1,5.3h15.6v23.1H16.1V5.3z M12.4,7.7h2.2v22.2h17.1h1.5h17.1V7.7h2.2v25.1H12.4V7.7z M2.5,14.6h8.4v19.6H54V14.6h8.5   c0.7,0,1.3,0.6,1.3,1.3v32H1.3v-32C1.3,15.2,1.8,14.6,2.5,14.6z M42.8,59.7H22.2l3.8-5.7H39L42.8,59.7z M62.5,52.6h-60   c-0.7,0-1.2-0.6-1.2-1.3v-1.9h62.5v1.9C63.8,52,63.2,52.6,62.5,52.6z"></path><path d="M19.8,21.5l9.2-4.7l-9.2-4.7V21.5z M21.3,14.6l4.4,2.3l-4.4,2.3V14.6z"></path><rect x="35.9" y="8.2" width="10.3" height="1.5"></rect><rect x="35.9" y="13.4" width="10.3" height="1.5"></rect><rect x="35.9" y="18.6" width="10.3" height="1.5"></rect><rect x="38" y="23.7" width="6.2" height="1.5"></rect></g></svg></g></g></svg>