<svg xmlns="http://www.w3.org/2000/svg" xmlns:xlink="http://www.w3.org/1999/xlink" width="100" height="100" viewBox="0 0 100 100"><g><g transform="translate(50 50) scale(0.69 0.69) rotate(0) translate(-50 -50)" style="fill:#333333"><svg fill="#333333" xmlns="http://www.w3.org/2000/svg" viewBox="0 0 64 64" x="0px" y="0px"><title>video-player-movie-entertainment</title><g><path d="M52,7H2V57H62V7H52ZM10,9v6H4V9ZM4,39V33h6v6Zm6,2v6H4V41ZM4,31V25h6v6Zm0-8V17h6v6ZM4,55V49h6v6Zm48,0H12V9H52Zm2-16V33h6v6Zm6,2v6H54V41ZM54,31V25h6v6Zm0-8V17h6v6Zm0,32V49h6v6ZM60,9v6H54V9Z"></path><path d="M24.5,40.865a1,1,0,0,0,1,0l14-8a1,1,0,0,0,0-1.736l-14-8A1,1,0,0,0,24,24V40A1,1,0,0,0,24.5,40.865ZM26,25.724,36.984,32,26,38.276Z"></path></g></svg></g></g></svg>