<svg xmlns="http://www.w3.org/2000/svg" xmlns:xlink="http://www.w3.org/1999/xlink" width="100" height="100" viewBox="0 0 100 100"><g><g transform="translate(50 50) scale(0.69 0.69) rotate(0) translate(-50 -50)" style="fill:#333333"><svg fill="#333333" xmlns:x="http://ns.adobe.com/Extensibility/1.0/" xmlns:i="http://ns.adobe.com/AdobeIllustrator/10.0/" xmlns:graph="http://ns.adobe.com/Graphs/1.0/" xmlns="http://www.w3.org/2000/svg" xmlns:xlink="http://www.w3.org/1999/xlink" version="1.1" x="0px" y="0px" viewBox="0 0 100 100" enable-background="new 0 0 100 100" xml:space="preserve"><g><g i:extraneous="self"><g><path fill="#333333" d="M86,95H14c-1.104,0-2-0.896-2-2V7c0-1.104,0.896-2,2-2h72c1.104,0,2,0.896,2,2v86     C88,94.104,87.104,95,86,95z M16,91h68V9H16V91z"></path></g><g><g><g><g><path fill="#333333" d="M80,19.625H54.5c-1.104,0-2-0.896-2-2s0.896-2,2-2H80c1.104,0,2,0.896,2,2S81.104,19.625,80,19.625z"></path></g></g></g></g><g><g><g><g><path fill="#333333" d="M80,28.875H54.5c-1.104,0-2-0.896-2-2s0.896-2,2-2H80c1.104,0,2,0.896,2,2S81.104,28.875,80,28.875z"></path></g></g></g></g><g><g><g><g><path fill="#333333" d="M80,38.125H54.5c-1.104,0-2-0.896-2-2s0.896-2,2-2H80c1.104,0,2,0.896,2,2S81.104,38.125,80,38.125z"></path></g></g></g></g><g><g><g><g><path fill="#333333" d="M80,47.375H54.5c-1.104,0-2-0.896-2-2c0-1.104,0.896-2,2-2H80c1.104,0,2,0.896,2,2        C82,46.479,81.104,47.375,80,47.375z"></path></g></g></g></g><g><g><g><g><path fill="#333333" d="M80,56.625H21c-1.104,0-2-0.896-2-2s0.896-2,2-2h59c1.104,0,2,0.896,2,2S81.104,56.625,80,56.625z"></path></g></g></g></g><g><g><g><g><path fill="#333333" d="M80,65.875H21c-1.104,0-2-0.896-2-2s0.896-2,2-2h59c1.104,0,2,0.896,2,2S81.104,65.875,80,65.875z"></path></g></g></g></g><g><g><g><g><path fill="#333333" d="M80,75H21c-1.104,0-2-0.896-2-2s0.896-2,2-2h59c1.104,0,2,0.896,2,2S81.104,75,80,75z"></path></g></g></g></g><g><g><g><g><path fill="#333333" d="M80,84.125H21c-1.104,0-2-0.896-2-2s0.896-2,2-2h59c1.104,0,2,0.896,2,2S81.104,84.125,80,84.125z"></path></g></g></g></g><g><path fill="#333333" d="M47.499,47.375H21.5c-1.381,0-2.5-1.119-2.5-2.5v-27c0-1.381,1.119-2.5,2.5-2.5h25.999     c1.381,0,2.5,1.119,2.5,2.5v27C49.999,46.256,48.88,47.375,47.499,47.375z M24,42.375h20.999v-22.5H24V42.375z"></path></g></g></g></svg></g></g></svg>